<svg width="16" height="16" viewBox="0 0 16 16" fill="none" xmlns="http://www.w3.org/2000/svg">
<path d="M12.4004 12.4004C12.8247 12.4004 13.2317 12.569 13.5318 12.869C13.8318 13.1691 14.0004 13.576 14.0004 14.0004C14.0004 14.4247 13.8318 14.8317 13.5318 15.1318C13.2317 15.4318 12.8247 15.6004 12.4004 15.6004C11.976 15.6004 11.5691 15.4318 11.269 15.1318C10.969 14.8317 10.8004 14.4247 10.8004 14.0004C10.8004 13.576 10.969 13.1691 11.269 12.869C11.5691 12.569 11.976 12.4004 12.4004 12.4004ZM12.4004 13.2004C12.1882 13.2004 11.9847 13.2847 11.8347 13.4347C11.6847 13.5847 11.6004 13.7882 11.6004 14.0004C11.6004 14.2126 11.6847 14.416 11.8347 14.5661C11.9847 14.7161 12.1882 14.8004 12.4004 14.8004C12.6126 14.8004 12.816 14.7161 12.9661 14.5661C13.1161 14.416 13.2004 14.2126 13.2004 14.0004C13.2004 13.7882 13.1161 13.5847 12.9661 13.4347C12.816 13.2847 12.6126 13.2004 12.4004 13.2004ZM5.20039 12.4004C5.62474 12.4004 6.0317 12.569 6.33176 12.869C6.63182 13.1691 6.80039 13.576 6.80039 14.0004C6.80039 14.4247 6.63182 14.8317 6.33176 15.1318C6.0317 15.4318 5.62474 15.6004 5.20039 15.6004C4.77604 15.6004 4.36908 15.4318 4.06902 15.1318C3.76896 14.8317 3.60039 14.4247 3.60039 14.0004C3.60039 13.576 3.76896 13.1691 4.06902 12.869C4.36908 12.569 4.77604 12.4004 5.20039 12.4004ZM5.20039 13.2004C4.98822 13.2004 4.78473 13.2847 4.63471 13.4347C4.48468 13.5847 4.40039 13.7882 4.40039 14.0004C4.40039 14.2126 4.48468 14.416 4.63471 14.5661C4.78473 14.7161 4.98822 14.8004 5.20039 14.8004C5.41256 14.8004 5.61605 14.7161 5.76608 14.5661C5.91611 14.416 6.00039 14.2126 6.00039 14.0004C6.00039 13.7882 5.91611 13.5847 5.76608 13.4347C5.61605 13.2847 5.41256 13.2004 5.20039 13.2004ZM14.0004 2.80039H3.01639L5.05639 7.60039H11.6004C11.8644 7.60039 12.0964 7.47239 12.2404 7.28039L14.6404 4.08039C14.7444 3.94439 14.8004 3.77639 14.8004 3.60039C14.8004 3.38822 14.7161 3.18473 14.5661 3.03471C14.416 2.88468 14.2126 2.80039 14.0004 2.80039ZM11.6004 8.40039H5.09639L4.48039 9.64839L4.40039 10.0004C4.40039 10.2126 4.48468 10.416 4.63471 10.5661C4.78473 10.7161 4.98822 10.8004 5.20039 10.8004H14.0004V11.6004H5.20039C4.77604 11.6004 4.36908 11.4318 4.06902 11.1318C3.76896 10.8317 3.60039 10.4247 3.60039 10.0004C3.60015 9.72895 3.66898 9.4619 3.80039 9.22439L4.37639 8.04839L1.47239 1.20039H0.400391V0.400391H2.00039L2.68039 2.00039H14.0004C14.4247 2.00039 14.8317 2.16896 15.1318 2.46902C15.4318 2.76908 15.6004 3.17604 15.6004 3.60039C15.6004 4.00039 15.4644 4.33639 15.2404 4.60839L12.9124 7.72039C12.6244 8.12839 12.1444 8.40039 11.6004 8.40039Z" fill="#333333"/>
</svg>
