<svg width="20" height="20" viewBox="0 0 20 20" fill="none" xmlns="http://www.w3.org/2000/svg">
<path d="M10.7488 9.99614L16.3768 4.36264C16.4761 4.26286 16.5318 4.1278 16.5317 3.98704C16.5316 3.84628 16.4757 3.71129 16.3763 3.61164C16.1773 3.41364 15.8268 3.41264 15.6258 3.61264L9.99931 9.24614L4.37081 3.61114C4.17081 3.41364 3.82031 3.41464 3.62131 3.61214C3.57191 3.66134 3.53281 3.71988 3.50629 3.78435C3.47976 3.84882 3.46634 3.91793 3.46681 3.98764C3.46681 4.12964 3.52181 4.26264 3.62131 4.36114L9.24931 9.99564L3.62181 15.6306C3.5225 15.7306 3.46689 15.8658 3.46717 16.0067C3.46745 16.1476 3.5236 16.2826 3.62331 16.3821C3.71981 16.4776 3.85631 16.5326 3.99731 16.5326H4.00031C4.14181 16.5321 4.27831 16.4766 4.37281 16.3801L9.99931 10.7466L15.6278 16.3816C15.7273 16.4806 15.8603 16.5356 16.0013 16.5356C16.071 16.5357 16.14 16.522 16.2044 16.4954C16.2688 16.4688 16.3273 16.4297 16.3766 16.3804C16.4258 16.3311 16.4649 16.2726 16.4916 16.2082C16.5182 16.1438 16.5319 16.0748 16.5318 16.0051C16.5318 15.8636 16.4768 15.7301 16.3768 15.6316L10.7488 9.99614Z" fill="#333333"/>
</svg>
