<svg width="24" height="24" viewBox="0 0 24 24" fill="none" xmlns="http://www.w3.org/2000/svg">
<path d="M6.29243 4.293C6.47996 4.10553 6.73427 4.00021 6.99943 4.00021C7.26459 4.00021 7.5189 4.10553 7.70643 4.293L11.7064 8.293C11.8886 8.4816 11.9894 8.7342 11.9871 8.9964C11.9848 9.2586 11.8797 9.50941 11.6942 9.69482C11.5088 9.88023 11.258 9.9854 10.9958 9.98767C10.7336 9.98995 10.481 9.88916 10.2924 9.707L7.99943 7.414V19C7.99943 19.2652 7.89407 19.5196 7.70654 19.7071C7.519 19.8946 7.26465 20 6.99943 20C6.73421 20 6.47986 19.8946 6.29232 19.7071C6.10479 19.5196 5.99943 19.2652 5.99943 19V7.414L3.70643 9.707C3.51783 9.88916 3.26523 9.98995 3.00303 9.98767C2.74083 9.9854 2.49002 9.88023 2.30461 9.69482C2.1192 9.50941 2.01403 9.2586 2.01176 8.9964C2.00948 8.7342 2.11027 8.4816 2.29243 8.293L6.29243 4.293ZM15.9994 16.586V5C15.9994 4.73478 16.1048 4.48043 16.2923 4.29289C16.4799 4.10536 16.7342 4 16.9994 4C17.2646 4 17.519 4.10536 17.7065 4.29289C17.8941 4.48043 17.9994 4.73478 17.9994 5V16.586L20.2924 14.293C20.481 14.1108 20.7336 14.01 20.9958 14.0123C21.258 14.0146 21.5088 14.1198 21.6942 14.3052C21.8797 14.4906 21.9848 14.7414 21.9871 15.0036C21.9894 15.2658 21.8886 15.5184 21.7064 15.707L17.7064 19.707C17.5189 19.8945 17.2646 19.9998 16.9994 19.9998C16.7343 19.9998 16.48 19.8945 16.2924 19.707L12.2924 15.707C12.1103 15.5184 12.0095 15.2658 12.0118 15.0036C12.014 14.7414 12.1192 14.4906 12.3046 14.3052C12.49 14.1198 12.7408 14.0146 13.003 14.0123C13.2652 14.01 13.5178 14.1108 13.7064 14.293L15.9994 16.586Z" fill="black"/>
</svg>
